<svg width="480" height="480" viewBox="0 0 480 480" fill="none" xmlns="http://www.w3.org/2000/svg">
<path d="M140 60H340C384.18 60 420 95.82 420 140V340C420 384.18 384.18 420 340 420H140C95.82 420 60 384.18 60 340V140C60 95.82 95.82 60 140 60Z" fill="#254FDB"/>
<path d="M201.75 328C198.25 328 194.5 326.917 190.5 324.75C186.667 322.583 184.75 319.667 184.75 316V291.75C184.75 285.25 186.583 279.167 190.25 273.5C194.083 267.667 199 262.25 205 257.25C211 252.083 217.333 247.083 224 242.25C230.833 237.417 237.167 232.667 243 228C249 223.167 253.917 218.333 257.75 213.5C261.583 208.667 263.5 203.583 263.5 198.25C263.5 194.25 262.083 190.333 259.25 186.5C256.417 182.5 251.5 180.5 244.5 180.5C239.5 180.5 235.083 181.917 231.25 184.75C227.583 187.583 225.75 192.417 225.75 199.25C225.75 202.917 223.917 206.25 220.25 209.25C216.583 212.083 211.583 213.5 205.25 213.5C200.25 213.5 196.083 212.083 192.75 209.25C189.417 206.417 187.75 201.083 187.75 193.25C187.75 183.083 190.417 174.417 195.75 167.25C201.25 160.083 208.333 154.667 217 151C225.667 147.167 234.75 145.25 244.25 145.25C253.917 145.25 263.167 147.25 272 151.25C281 155.25 288.333 161.083 294 168.75C299.667 176.417 302.5 185.833 302.5 197C302.5 206 300.583 214.083 296.75 221.25C293.083 228.417 288.333 234.917 282.5 240.75C276.667 246.417 270.417 251.583 263.75 256.25C257.25 260.917 251.083 265.25 245.25 269.25C239.417 273.083 234.583 276.833 230.75 280.5C227.083 284.167 225.25 287.917 225.25 291.75V294H290.75C293.917 294 296.667 295.667 299 299C301.333 302.333 302.5 306.25 302.5 310.75C302.5 315.25 301.333 319.25 299 322.75C296.667 326.25 293.917 328 290.75 328H201.75Z" fill="white"/>
<path d="M280.32 165.92L288.71 126.02C289.37 122.92 286.99 120 283.82 120H253.17C250.81 120 248.76 121.66 248.28 123.97L239.85 164.08L280.32 165.92Z" fill="#FAFAFA"/>
<path d="M209.16 310L199.91 353.97C199.26 357.08 201.63 360 204.81 360H235.46C237.82 360 239.87 358.34 240.35 356.03L250.03 310H209.16Z" fill="#FAFAFA"/>
</svg>
